<svg width="1792" height="153" viewBox="0 0 1792 153" fill="none" xmlns="http://www.w3.org/2000/svg">
<path class="rock" d="M0 80L152 113C186.684 123.546 379.614 143.989 447 113C516.449 109.02 679.408 33.8843 748.857 16.3732C818.306 -1.23747 887.837 -7.20717 957.286 11.3984C1026.73 29.9045 1096.27 73.0853 1165.71 73.1848C1235.16 73.3838 1319.91 121.489 1389.35 99.1023C1458.8 76.7159 1564.63 20.829 1634.08 42.7179C1703.53 64.6068 1721.55 73.3838 1756.23 96.2676L1791 119.151V149H1756.23C1721.55 149 1652.02 149 1582.57 149C1513.12 149 1443.59 149 1374.14 149C1304.69 149 1235.16 149 1165.71 149C1096.27 149 1026.73 149 957.286 149C887.837 149 818.306 149 748.857 149C679.408 149 609.878 149 540.429 149C470.98 149 401.449 149 366.765 149H0V80Z" fill="#E74646"/>
<path class="github" d="M858.096 74.9468C858.096 75.2855 857.706 75.5564 857.215 75.5564C856.656 75.6073 856.267 75.3363 856.267 74.9468C856.267 74.6081 856.656 74.3371 857.148 74.3371C857.656 74.2863 858.096 74.5573 858.096 74.9468ZM852.829 74.1847C852.71 74.5234 853.049 74.9129 853.557 75.0145C853.998 75.1839 854.506 75.0145 854.607 74.6758C854.709 74.3371 854.387 73.9476 853.879 73.7952C853.439 73.6766 852.948 73.846 852.829 74.1847ZM860.315 73.8968C859.823 74.0153 859.485 74.3371 859.535 74.7266C859.586 75.0653 860.027 75.2855 860.535 75.1669C861.026 75.0484 861.365 74.7266 861.314 74.3879C861.263 74.0661 860.806 73.846 860.315 73.8968ZM871.458 9C847.969 9 830 26.8331 830 50.3226C830 69.104 841.821 85.1758 858.706 90.8323C860.873 91.2218 861.635 89.8839 861.635 88.7831C861.635 87.7331 861.585 81.9411 861.585 78.3847C861.585 78.3847 849.73 80.925 847.24 73.3379C847.24 73.3379 845.31 68.4097 842.532 67.1395C842.532 67.1395 838.654 64.4806 842.803 64.5314C842.803 64.5314 847.02 64.8702 849.34 68.9008C853.049 75.4379 859.265 73.5581 861.686 72.4403C862.076 69.7306 863.177 67.8508 864.396 66.7331C854.929 65.6831 845.377 64.3113 845.377 48.0194C845.377 43.3621 846.665 41.025 849.374 38.0444C848.934 36.9435 847.494 32.4048 849.815 26.5452C853.354 25.4444 861.5 31.1177 861.5 31.1177C864.887 30.1694 868.528 29.6782 872.135 29.6782C875.743 29.6782 879.384 30.1694 882.771 31.1177C882.771 31.1177 890.917 25.4274 894.456 26.5452C896.777 32.4218 895.337 36.9435 894.897 38.0444C897.606 41.0419 899.266 43.379 899.266 48.0194C899.266 64.3621 889.291 65.6661 879.824 66.7331C881.382 68.071 882.703 70.6113 882.703 74.5911C882.703 80.2984 882.652 87.3605 882.652 88.7492C882.652 89.85 883.431 91.1879 885.582 90.7984C902.518 85.1758 914 69.104 914 50.3226C914 26.8331 894.948 9 871.458 9ZM846.461 67.4105C846.241 67.5798 846.292 67.9694 846.58 68.2911C846.851 68.5621 847.24 68.6806 847.461 68.4605C847.681 68.2911 847.63 67.9016 847.342 67.5798C847.071 67.3089 846.681 67.1903 846.461 67.4105ZM844.632 66.0387C844.514 66.2589 844.683 66.5298 845.022 66.6992C845.293 66.8686 845.631 66.8177 845.75 66.5806C845.869 66.3605 845.699 66.0895 845.36 65.9202C845.022 65.8186 844.751 65.8694 844.632 66.0387ZM850.119 72.0677C849.848 72.2879 849.95 72.796 850.34 73.1177C850.729 73.5073 851.22 73.5581 851.44 73.2871C851.66 73.0669 851.559 72.5589 851.22 72.2371C850.848 71.8476 850.34 71.7968 850.119 72.0677ZM848.189 69.5782C847.918 69.7476 847.918 70.1879 848.189 70.5774C848.46 70.9669 848.917 71.1363 849.137 70.9669C849.408 70.7468 849.408 70.3065 849.137 69.9169C848.9 69.5274 848.46 69.3581 848.189 69.5782Z" fill="black"/>
<path class="rock" d="M0 121.83H48.1701C96.2274 121.948 545.152 150.587 596.666 122.417C699.195 106.572 737.904 97.4725 835.233 105.985C915.756 113.027 1009.99 98.9902 1056 89C1152.23 68.1074 1179.17 72.1367 1217 69.5988C1313.23 63.1433 1347.75 61.1479 1443.97 72.5332C1540.2 83.8011 1621.25 67.4861 1717.48 54.3402C1755.7 54.3402 1771.99 60.2089 1792 69.5988V150H1743.49C1695.43 150 1829 150 1732.77 150C1636.54 150 1540.2 150 1443.97 150C1347.75 150 1251.41 150 1155.18 150C1058.95 150 962.612 150 866.385 150C770.157 150 673.817 150 577.59 150C481.362 150 385.022 150 288.795 150C192.568 150 96.2274 150 48.1701 150H0V121.83Z" fill="#BC9151"/>
<path class="linkedin" d="M0 47L10 45L20 42L42.7 38.3734C125 23.5001 170 27.5273 256 42.6045C321 54.0001 322.7 70.3156 408 85.0001C493.3 99.8089 678.7 134.818 764 137.556C849.3 140.293 941.7 126.107 1027 126.356C1112.3 126.604 1194.7 147.98 1280 143.5C1365.3 138.896 1450.7 160.578 1536 150C1576.5 144.978 1704 146.5 1749.3 148L1792 150L1749.3 150C1706.7 150 1621.3 150 1536 150C1450.7 150 1365.3 150 1280 150C1194.7 150 1109.3 150 1024 150C938.7 150 853.3 150 768 150C682.7 150 597.3 150 512 150C426.7 150 341.3 150 256 150C170.7 150 85.3 150 42.7 150L0 150V47Z" fill="#794343"/>
<path class="rock" d="M183.286 51H114.696C111.554 51 109 53.5893 109 56.7679V125.232C109 128.411 111.554 131 114.696 131H183.286C186.429 131 189 128.411 189 125.232V56.7679C189 53.5893 186.429 51 183.286 51ZM121.321 119.571V81.3929H133.196V119.571H121.321ZM127.25 76.1786C123.446 76.1786 120.375 73.0893 120.375 69.3036C120.375 65.5179 123.446 62.4286 127.25 62.4286C131.036 62.4286 134.125 65.5179 134.125 69.3036C134.125 73.1071 131.054 76.1786 127.25 76.1786ZM177.625 119.571H165.768V101C165.768 96.5714 165.679 90.875 159.607 90.875C153.429 90.875 152.482 95.6964 152.482 100.679V119.571H140.625V81.3929H152V86.6071H152.161C153.75 83.6071 157.625 80.4464 163.393 80.4464C175.393 80.4464 177.625 88.3571 177.625 98.6429V119.571Z" fill="black"/>
</svg>
