<svg width="1792" height="212" viewBox="0 0 1792 212" fill="none" xmlns="http://www.w3.org/2000/svg">
<g clip-path="url(#clip0_1_2)">
<path d="M0 143L152 176C186.684 186.546 379.614 206.989 447 176C516.449 172.02 679.408 96.8843 748.857 79.3732C818.306 61.7625 887.837 55.7928 957.286 74.3984C1026.73 92.9045 1096.27 136.085 1165.71 136.185C1235.16 136.384 1319.91 184.489 1389.35 162.102C1458.8 139.716 1564.63 83.829 1634.08 105.718C1703.53 127.607 1721.55 136.384 1756.23 159.268L1791 182.151V212H1756.23C1721.55 212 1652.02 212 1582.57 212C1513.12 212 1443.59 212 1374.14 212C1304.69 212 1235.16 212 1165.71 212C1096.27 212 1026.73 212 957.286 212C887.837 212 818.306 212 748.857 212C679.408 212 609.878 212 540.429 212C470.98 212 401.449 212 366.765 212H0V143Z" 
fill="#E74646"/>
<path d="M858.096 137.947C858.096 138.285 857.706 138.556 857.215 138.556C856.656 138.607 856.267 138.336 856.267 137.947C856.267 137.608 856.656 137.337 857.148 137.337C857.656 137.286 858.096 137.557 858.096 137.947ZM852.829 137.185C852.71 137.523 853.049 137.913 853.557 138.015C853.998 138.184 854.506 138.015 854.607 137.676C854.709 137.337 854.387 136.948 853.879 136.795C853.439 136.677 852.948 136.846 852.829 137.185ZM860.315 136.897C859.823 137.015 859.485 137.337 859.535 137.727C859.586 138.065 860.027 138.285 860.535 138.167C861.026 138.048 861.365 137.727 861.314 137.388C861.263 137.066 860.806 136.846 860.315 136.897ZM871.458 72C847.969 72 830 89.8331 830 113.323C830 132.104 841.821 148.176 858.706 153.832C860.873 154.222 861.635 152.884 861.635 151.783C861.635 150.733 861.585 144.941 861.585 141.385C861.585 141.385 849.73 143.925 847.24 136.338C847.24 136.338 845.31 131.41 842.532 130.14C842.532 130.14 838.654 127.481 842.803 127.531C842.803 127.531 847.02 127.87 849.34 131.901C853.049 138.438 859.265 136.558 861.686 135.44C862.076 132.731 863.177 130.851 864.396 129.733C854.929 128.683 845.377 127.311 845.377 111.019C845.377 106.362 846.665 104.025 849.374 101.044C848.934 99.9435 847.494 95.4048 849.815 89.5452C853.354 88.4444 861.5 94.1177 861.5 94.1177C864.887 93.1694 868.528 92.6782 872.135 92.6782C875.743 92.6782 879.384 93.1694 882.771 94.1177C882.771 94.1177 890.917 88.4274 894.456 89.5452C896.777 95.4218 895.337 99.9435 894.897 101.044C897.606 104.042 899.266 106.379 899.266 111.019C899.266 127.362 889.291 128.666 879.824 129.733C881.382 131.071 882.703 133.611 882.703 137.591C882.703 143.298 882.652 150.36 882.652 151.749C882.652 152.85 883.431 154.188 885.582 153.798C902.518 148.176 914 132.104 914 113.323C914 89.8331 894.948 72 871.458 72ZM846.461 130.41C846.241 130.58 846.292 130.969 846.58 131.291C846.851 131.562 847.24 131.681 847.46 131.46C847.681 131.291 847.63 130.902 847.342 130.58C847.071 130.309 846.681 130.19 846.461 130.41ZM844.632 129.039C844.514 129.259 844.683 129.53 845.022 129.699C845.293 129.869 845.631 129.818 845.75 129.581C845.869 129.36 845.699 129.09 845.36 128.92C845.022 128.819 844.751 128.869 844.632 129.039ZM850.119 135.068C849.848 135.288 849.95 135.796 850.34 136.118C850.729 136.507 851.22 136.558 851.44 136.287C851.66 136.067 851.559 135.559 851.22 135.237C850.848 134.848 850.34 134.797 850.119 135.068ZM848.189 132.578C847.918 132.748 847.918 133.188 848.189 133.577C848.46 133.967 848.917 134.136 849.137 133.967C849.408 133.747 849.408 133.306 849.137 132.917C848.9 132.527 848.46 132.358 848.189 132.578Z" 
fill="red"/>
<path d="M0 184.83H48.1701C96.2274 184.948 545.152 213.587 596.666 185.417C699.195 169.572 737.904 160.472 835.233 168.985C915.756 176.027 1009.99 161.99 1056 152C1152.23 131.107 1179.17 135.137 1217 132.599C1313.23 126.143 1347.75 124.148 1443.97 135.533C1540.2 146.801 1621.25 130.486 1717.48 117.34C1755.7 117.34 1771.99 123.209 1792 132.599V178.962V213H1743.49C1695.43 213 1829 213 1732.77 213C1636.54 213 1540.2 213 1443.97 213C1347.75 213 1251.41 213 1155.18 213C1058.95 213 962.612 213 866.385 213C770.157 213 673.817 213 577.59 213C481.362 213 385.022 213 288.795 213C192.568 213 96.2274 213 48.1701 213H0V184.83Z" 
fill="#BC9151"/>
<path d="M0 110L10 108L20 105L42.7 101.373C125 86.5001 170 90.5273 256 105.604C321 117 322.7 133.316 408 148C493.3 162.809 678.7 197.818 764 200.556C849.3 203.293 941.7 189.107 1027 189.356C1112.3 189.604 1194.7 210.98 1280 206.5C1365.3 201.896 1450.7 223.578 1536 213C1576.5 207.978 1704 209.5 1749.3 211L1792 213H1749.3C1706.7 213 1621.3 213 1536 213C1450.7 213 1365.3 213 1280 213C1194.7 213 1109.3 213 1024 213C938.7 213 853.3 213 768 213C682.7 213 597.3 213 512 213C426.7 213 341.3 213 256 213C170.7 213 85.3 213 42.7 213H0V110Z" 
fill="#794343"/>
<path d="M183.286 114H114.696C111.554 114 109 116.589 109 119.768V188.232C109 191.411 111.554 194 114.696 194H183.286C186.429 194 189 191.411 189 188.232V119.768C189 116.589 186.429 114 183.286 114ZM133.179 182.571H121.321V144.393H133.196V182.571H133.179ZM127.25 139.179C123.446 139.179 120.375 136.089 120.375 132.304C120.375 128.518 123.446 125.429 127.25 125.429C131.036 125.429 134.125 128.518 134.125 132.304C134.125 136.107 131.054 139.179 127.25 139.179ZM177.625 182.571H165.768V164C165.768 159.571 165.679 153.875 159.607 153.875C153.429 153.875 152.482 158.696 152.482 163.679V182.571H140.625V144.393H152V149.607H152.161C153.75 146.607 157.625 143.446 163.393 143.446C175.393 143.446 177.625 151.357 177.625 161.643V182.571Z" 
fill="black"/>
</g>
<defs>
<clipPath id="clip0_1_2">
<rect width="1792" height="212"/>
</clipPath>
</defs>
</svg>
