<svg viewBox="0 0 1792 212" width="1792" height="212" xmlns="http://www.w3.org/2000/svg" xmlns:xlink="http://www.w3.org/1999/xlink" version="1.1"><path d="M0 92L42.7 102.7C85.3 113.3 170.7 134.7 256 130.7C341.3 126.7 426.7 97.3 512 79.7C597.3 62 682.7 56 768 74.7C853.3 93.3 938.7 136.7 1024 136.8C1109.3 137 1194.7 94 1280 71.5C1365.3 49 1450.7 47 1536 69C1621.3 91 1706.7 137 1749.3 160L1792 183L1792 213L1749.3 213C1706.7 213 1621.3 213 1536 213C1450.7 213 1365.3 213 1280 213C1194.7 213 1109.3 213 1024 213C938.7 213 853.3 213 768 213C682.7 213 597.3 213 512 213C426.7 213 341.3 213 256 213C170.7 213 85.3 213 42.7 213L0 213Z" 
class="rock rock-0"></path><path d="M0 68L42.7 68.2C85.3 68.3 170.7 68.7 256 90C341.3 111.3 426.7 153.7 512 170C597.3 186.3 682.7 176.7 768 158.8C853.3 141 938.7 115 1024 109.5C1109.3 104 1194.7 119 1280 128.7C1365.3 138.3 1450.7 142.7 1536 131.5C1621.3 120.3 1706.7 93.7 1749.3 80.3L1792 67L1792 213L1749.3 213C1706.7 213 1621.3 213 1536 213C1450.7 213 1365.3 213 1280 213C1194.7 213 1109.3 213 1024 213C938.7 213 853.3 213 768 213C682.7 213 597.3 213 512 213C426.7 213 341.3 213 256 213C170.7 213 85.3 213 42.7 213L0 213Z" 
class="rock rock-1"></path><path d="M0 123L42.7 123.3C85.3 123.7 170.7 124.3 256 126.7C341.3 129 426.7 133 512 144.8C597.3 156.7 682.7 176.3 768 178.5C853.3 180.7 938.7 165.3 1024 165.5C1109.3 165.7 1194.7 181.3 1280 177.7C1365.3 174 1450.7 151 1536 142.5C1621.3 134 1706.7 140 1749.3 143L1792 146L1792 213L1749.3 213C1706.7 213 1621.3 213 1536 213C1450.7 213 1365.3 213 1280 213C1194.7 213 1109.3 213 1024 213C938.7 213 853.3 213 768 213C682.7 213 597.3 213 512 213C426.7 213 341.3 213 256 213C170.7 213 85.3 213 42.7 213L0 213Z" 
class="rock rock-2"></path></svg>