<svg id="visual" viewBox="0 0 720 180" width="720" height="180" xmlns="http://www.w3.org/2000/svg" xmlns:xlink="http://www.w3.org/1999/xlink" version="1.1"><path class="waves" d="M0 96L7 95.8C14 95.7 28 95.3 42.2 92.7C56.3 90 70.7 85 84.8 89.3C99 93.7 113 107.3 127 110.2C141 113 155 105 169.2 105.3C183.3 105.7 197.7 114.3 211.8 113.5C226 112.7 240 102.3 254 99.5C268 96.7 282 101.3 296.2 106.7C310.3 112 324.7 118 338.8 114.8C353 111.7 367 99.3 381.2 90.8C395.3 82.3 409.7 77.7 423.8 78.2C438 78.7 452 84.3 466 91.2C480 98 494 106 508.2 104.7C522.3 103.3 536.7 92.7 550.8 89.2C565 85.7 579 89.3 593 90.5C607 91.7 621 90.3 635.2 86.7C649.3 83 663.7 77 677.8 80.2C692 83.3 706 95.7 713 101.8L720 108L720 181L713 181C706 181 692 181 677.8 181C663.7 181 649.3 181 635.2 181C621 181 607 181 593 181C579 181 565 181 550.8 181C536.7 181 522.3 181 508.2 181C494 181 480 181 466 181C452 181 438 181 423.8 181C409.7 181 395.3 181 381.2 181C367 181 353 181 338.8 181C324.7 181 310.3 181 296.2 181C282 181 268 181 254 181C240 181 226 181 211.8 181C197.7 181 183.3 181 169.2 181C155 181 141 181 127 181C113 181 99 181 84.8 181C70.7 181 56.3 181 42.2 181C28 181 14 181 7 181L0 181Z" fill="#fa7268"></path><path class="waves" d="M0 87L7 88.3C14 89.7 28 92.3 42.2 93C56.3 93.7 70.7 92.3 84.8 96C99 99.7 113 108.3 127 109.7C141 111 155 105 169.2 98C183.3 91 197.7 83 211.8 85C226 87 240 99 254 104.8C268 110.7 282 110.3 296.2 106C310.3 101.7 324.7 93.3 338.8 89.8C353 86.3 367 87.7 381.2 89.8C395.3 92 409.7 95 423.8 97.2C438 99.3 452 100.7 466 98.2C480 95.7 494 89.3 508.2 93.2C522.3 97 536.7 111 550.8 118C565 125 579 125 593 121.7C607 118.3 621 111.7 635.2 103.3C649.3 95 663.7 85 677.8 80.7C692 76.3 706 77.7 713 78.3L720 79L720 181L713 181C706 181 692 181 677.8 181C663.7 181 649.3 181 635.2 181C621 181 607 181 593 181C579 181 565 181 550.8 181C536.7 181 522.3 181 508.2 181C494 181 480 181 466 181C452 181 438 181 423.8 181C409.7 181 395.3 181 381.2 181C367 181 353 181 338.8 181C324.7 181 310.3 181 296.2 181C282 181 268 181 254 181C240 181 226 181 211.8 181C197.7 181 183.3 181 169.2 181C155 181 141 181 127 181C113 181 99 181 84.8 181C70.7 181 56.3 181 42.2 181C28 181 14 181 7 181L0 181Z" fill="#f66b68"></path><path class="waves" d="M0 119L7 114.3C14 109.7 28 100.3 42.2 95.3C56.3 90.3 70.7 89.7 84.8 91.2C99 92.7 113 96.3 127 102.5C141 108.7 155 117.3 169.2 121.5C183.3 125.7 197.7 125.3 211.8 118.2C226 111 240 97 254 96C268 95 282 107 296.2 111C310.3 115 324.7 111 338.8 110.5C353 110 367 113 381.2 113.8C395.3 114.7 409.7 113.3 423.8 110.8C438 108.3 452 104.7 466 102.2C480 99.7 494 98.3 508.2 98C522.3 97.7 536.7 98.3 550.8 101C565 103.7 579 108.3 593 107.2C607 106 621 99 635.2 96.3C649.3 93.7 663.7 95.3 677.8 94.2C692 93 706 89 713 87L720 85L720 181L713 181C706 181 692 181 677.8 181C663.7 181 649.3 181 635.2 181C621 181 607 181 593 181C579 181 565 181 550.8 181C536.7 181 522.3 181 508.2 181C494 181 480 181 466 181C452 181 438 181 423.8 181C409.7 181 395.3 181 381.2 181C367 181 353 181 338.8 181C324.7 181 310.3 181 296.2 181C282 181 268 181 254 181C240 181 226 181 211.8 181C197.7 181 183.3 181 169.2 181C155 181 141 181 127 181C113 181 99 181 84.8 181C70.7 181 56.3 181 42.2 181C28 181 14 181 7 181L0 181Z" fill="#f26467"></path><path class="waves" d="M0 125L7 121.3C14 117.7 28 110.3 42.2 106.3C56.3 102.3 70.7 101.7 84.8 101.5C99 101.3 113 101.7 127 106.7C141 111.7 155 121.3 169.2 122.5C183.3 123.7 197.7 116.3 211.8 115.8C226 115.3 240 121.7 254 119.3C268 117 282 106 296.2 101.8C310.3 97.7 324.7 100.3 338.8 101.7C353 103 367 103 381.2 108.2C395.3 113.3 409.7 123.7 423.8 126.3C438 129 452 124 466 122.2C480 120.3 494 121.7 508.2 121.8C522.3 122 536.7 121 550.8 119.7C565 118.3 579 116.7 593 113C607 109.3 621 103.7 635.2 101.8C649.3 100 663.7 102 677.8 108.3C692 114.7 706 125.3 713 130.7L720 136L720 181L713 181C706 181 692 181 677.8 181C663.7 181 649.3 181 635.2 181C621 181 607 181 593 181C579 181 565 181 550.8 181C536.7 181 522.3 181 508.2 181C494 181 480 181 466 181C452 181 438 181 423.8 181C409.7 181 395.3 181 381.2 181C367 181 353 181 338.8 181C324.7 181 310.3 181 296.2 181C282 181 268 181 254 181C240 181 226 181 211.8 181C197.7 181 183.3 181 169.2 181C155 181 141 181 127 181C113 181 99 181 84.8 181C70.7 181 56.3 181 42.2 181C28 181 14 181 7 181L0 181Z" fill="#ee5d67"></path><path class="waves" d="M0 111L7 109.5C14 108 28 105 42.2 109.7C56.3 114.3 70.7 126.7 84.8 127.3C99 128 113 117 127 116.3C141 115.7 155 125.3 169.2 129.2C183.3 133 197.7 131 211.8 131.8C226 132.7 240 136.3 254 133.5C268 130.7 282 121.3 296.2 115C310.3 108.7 324.7 105.3 338.8 103.5C353 101.7 367 101.3 381.2 102.2C395.3 103 409.7 105 423.8 105.2C438 105.3 452 103.7 466 102.8C480 102 494 102 508.2 107.3C522.3 112.7 536.7 123.3 550.8 128.3C565 133.3 579 132.7 593 132.2C607 131.7 621 131.3 635.2 129.2C649.3 127 663.7 123 677.8 120C692 117 706 115 713 114L720 113L720 181L713 181C706 181 692 181 677.8 181C663.7 181 649.3 181 635.2 181C621 181 607 181 593 181C579 181 565 181 550.8 181C536.7 181 522.3 181 508.2 181C494 181 480 181 466 181C452 181 438 181 423.8 181C409.7 181 395.3 181 381.2 181C367 181 353 181 338.8 181C324.7 181 310.3 181 296.2 181C282 181 268 181 254 181C240 181 226 181 211.8 181C197.7 181 183.3 181 169.2 181C155 181 141 181 127 181C113 181 99 181 84.8 181C70.7 181 56.3 181 42.2 181C28 181 14 181 7 181L0 181Z" fill="#ea5667"></path><path class="waves" d="M0 123L7 122.5C14 122 28 121 42.2 120.8C56.3 120.7 70.7 121.3 84.8 122.5C99 123.7 113 125.3 127 127.7C141 130 155 133 169.2 134C183.3 135 197.7 134 211.8 129.7C226 125.3 240 117.7 254 114.3C268 111 282 112 296.2 116.2C310.3 120.3 324.7 127.7 338.8 133C353 138.3 367 141.7 381.2 138.8C395.3 136 409.7 127 423.8 124.2C438 121.3 452 124.7 466 125.3C480 126 494 124 508.2 123.2C522.3 122.3 536.7 122.7 550.8 125C565 127.3 579 131.7 593 134.2C607 136.7 621 137.3 635.2 138.7C649.3 140 663.7 142 677.8 140C692 138 706 132 713 129L720 126L720 181L713 181C706 181 692 181 677.8 181C663.7 181 649.3 181 635.2 181C621 181 607 181 593 181C579 181 565 181 550.8 181C536.7 181 522.3 181 508.2 181C494 181 480 181 466 181C452 181 438 181 423.8 181C409.7 181 395.3 181 381.2 181C367 181 353 181 338.8 181C324.7 181 310.3 181 296.2 181C282 181 268 181 254 181C240 181 226 181 211.8 181C197.7 181 183.3 181 169.2 181C155 181 141 181 127 181C113 181 99 181 84.8 181C70.7 181 56.3 181 42.2 181C28 181 14 181 7 181L0 181Z" fill="#e54f67"></path><path class="waves" d="M0 145L7 141.8C14 138.7 28 132.3 42.2 132.5C56.3 132.7 70.7 139.3 84.8 142.2C99 145 113 144 127 139.8C141 135.7 155 128.3 169.2 127.5C183.3 126.7 197.7 132.3 211.8 136.5C226 140.7 240 143.3 254 140.2C268 137 282 128 296.2 128C310.3 128 324.7 137 338.8 139.3C353 141.7 367 137.3 381.2 133C395.3 128.7 409.7 124.3 423.8 126.5C438 128.7 452 137.3 466 140.8C480 144.3 494 142.7 508.2 140.3C522.3 138 536.7 135 550.8 132.2C565 129.3 579 126.7 593 126.7C607 126.7 621 129.3 635.2 130.2C649.3 131 663.7 130 677.8 129.8C692 129.7 706 130.3 713 130.7L720 131L720 181L713 181C706 181 692 181 677.8 181C663.7 181 649.3 181 635.2 181C621 181 607 181 593 181C579 181 565 181 550.8 181C536.7 181 522.3 181 508.2 181C494 181 480 181 466 181C452 181 438 181 423.8 181C409.7 181 395.3 181 381.2 181C367 181 353 181 338.8 181C324.7 181 310.3 181 296.2 181C282 181 268 181 254 181C240 181 226 181 211.8 181C197.7 181 183.3 181 169.2 181C155 181 141 181 127 181C113 181 99 181 84.8 181C70.7 181 56.3 181 42.2 181C28 181 14 181 7 181L0 181Z" fill="#e14867"></path><path class="waves" d="M0 149L7 147.8C14 146.7 28 144.3 42.2 143C56.3 141.7 70.7 141.3 84.8 140.3C99 139.3 113 137.7 127 137C141 136.3 155 136.7 169.2 138.7C183.3 140.7 197.7 144.3 211.8 146.5C226 148.7 240 149.3 254 149.8C268 150.3 282 150.7 296.2 151C310.3 151.3 324.7 151.7 338.8 148.8C353 146 367 140 381.2 139.7C395.3 139.3 409.7 144.7 423.8 147C438 149.3 452 148.7 466 149C480 149.3 494 150.7 508.2 151.2C522.3 151.7 536.7 151.3 550.8 151.8C565 152.3 579 153.7 593 153.2C607 152.7 621 150.3 635.2 150.3C649.3 150.3 663.7 152.7 677.8 150.7C692 148.7 706 142.3 713 139.2L720 136L720 181L713 181C706 181 692 181 677.8 181C663.7 181 649.3 181 635.2 181C621 181 607 181 593 181C579 181 565 181 550.8 181C536.7 181 522.3 181 508.2 181C494 181 480 181 466 181C452 181 438 181 423.8 181C409.7 181 395.3 181 381.2 181C367 181 353 181 338.8 181C324.7 181 310.3 181 296.2 181C282 181 268 181 254 181C240 181 226 181 211.8 181C197.7 181 183.3 181 169.2 181C155 181 141 181 127 181C113 181 99 181 84.8 181C70.7 181 56.3 181 42.2 181C28 181 14 181 7 181L0 181Z" fill="#dc4167"></path><path class="waves" d="M0 149L7 147.5C14 146 28 143 42.2 144.3C56.3 145.7 70.7 151.3 84.8 152.8C99 154.3 113 151.7 127 151.5C141 151.3 155 153.7 169.2 154.5C183.3 155.3 197.7 154.7 211.8 155.2C226 155.7 240 157.3 254 157C268 156.7 282 154.3 296.2 151.5C310.3 148.7 324.7 145.3 338.8 145.7C353 146 367 150 381.2 151.5C395.3 153 409.7 152 423.8 149.8C438 147.7 452 144.3 466 143C480 141.7 494 142.3 508.2 141.7C522.3 141 536.7 139 550.8 139.7C565 140.3 579 143.7 593 144C607 144.3 621 141.7 635.2 142.7C649.3 143.7 663.7 148.3 677.8 148.5C692 148.7 706 144.3 713 142.2L720 140L720 181L713 181C706 181 692 181 677.8 181C663.7 181 649.3 181 635.2 181C621 181 607 181 593 181C579 181 565 181 550.8 181C536.7 181 522.3 181 508.2 181C494 181 480 181 466 181C452 181 438 181 423.8 181C409.7 181 395.3 181 381.2 181C367 181 353 181 338.8 181C324.7 181 310.3 181 296.2 181C282 181 268 181 254 181C240 181 226 181 211.8 181C197.7 181 183.3 181 169.2 181C155 181 141 181 127 181C113 181 99 181 84.8 181C70.7 181 56.3 181 42.2 181C28 181 14 181 7 181L0 181Z" fill="#d73a67"></path><path class="waves" d="M0 158L7 156.5C14 155 28 152 42.2 151C56.3 150 70.7 151 84.8 150.7C99 150.3 113 148.7 127 150.7C141 152.7 155 158.3 169.2 160.5C183.3 162.7 197.7 161.3 211.8 160C226 158.7 240 157.3 254 155.3C268 153.3 282 150.7 296.2 150.2C310.3 149.7 324.7 151.3 338.8 152.2C353 153 367 153 381.2 152.5C395.3 152 409.7 151 423.8 151C438 151 452 152 466 152.7C480 153.3 494 153.7 508.2 155.5C522.3 157.3 536.7 160.7 550.8 162.3C565 164 579 164 593 162.2C607 160.3 621 156.7 635.2 154.8C649.3 153 663.7 153 677.8 154.3C692 155.7 706 158.3 713 159.7L720 161L720 181L713 181C706 181 692 181 677.8 181C663.7 181 649.3 181 635.2 181C621 181 607 181 593 181C579 181 565 181 550.8 181C536.7 181 522.3 181 508.2 181C494 181 480 181 466 181C452 181 438 181 423.8 181C409.7 181 395.3 181 381.2 181C367 181 353 181 338.8 181C324.7 181 310.3 181 296.2 181C282 181 268 181 254 181C240 181 226 181 211.8 181C197.7 181 183.3 181 169.2 181C155 181 141 181 127 181C113 181 99 181 84.8 181C70.7 181 56.3 181 42.2 181C28 181 14 181 7 181L0 181Z" fill="#d13367"></path><path class="waves" d="M0 166L7 165.3C14 164.7 28 163.3 42.2 163.5C56.3 163.7 70.7 165.3 84.8 165.8C99 166.3 113 165.7 127 165C141 164.3 155 163.7 169.2 162.2C183.3 160.7 197.7 158.3 211.8 158C226 157.7 240 159.3 254 160.7C268 162 282 163 296.2 163.7C310.3 164.3 324.7 164.7 338.8 164.7C353 164.7 367 164.3 381.2 163C395.3 161.7 409.7 159.3 423.8 159.8C438 160.3 452 163.7 466 163.7C480 163.7 494 160.3 508.2 160.7C522.3 161 536.7 165 550.8 164.7C565 164.3 579 159.7 593 159.2C607 158.7 621 162.3 635.2 164.2C649.3 166 663.7 166 677.8 164.8C692 163.7 706 161.3 713 160.2L720 159L720 181L713 181C706 181 692 181 677.8 181C663.7 181 649.3 181 635.2 181C621 181 607 181 593 181C579 181 565 181 550.8 181C536.7 181 522.3 181 508.2 181C494 181 480 181 466 181C452 181 438 181 423.8 181C409.7 181 395.3 181 381.2 181C367 181 353 181 338.8 181C324.7 181 310.3 181 296.2 181C282 181 268 181 254 181C240 181 226 181 211.8 181C197.7 181 183.3 181 169.2 181C155 181 141 181 127 181C113 181 99 181 84.8 181C70.7 181 56.3 181 42.2 181C28 181 14 181 7 181L0 181Z" fill="#cc2b68"></path><path class="waves" d="M0 170L7 169.7C14 169.3 28 168.7 42.2 167.8C56.3 167 70.7 166 84.8 166C99 166 113 167 127 167.2C141 167.3 155 166.7 169.2 166C183.3 165.3 197.7 164.7 211.8 165.7C226 166.7 240 169.3 254 169.7C268 170 282 168 296.2 168C310.3 168 324.7 170 338.8 169.8C353 169.7 367 167.3 381.2 167.2C395.3 167 409.7 169 423.8 169.8C438 170.7 452 170.3 466 170C480 169.7 494 169.3 508.2 169.5C522.3 169.7 536.7 170.3 550.8 170.3C565 170.3 579 169.7 593 170C607 170.3 621 171.7 635.2 170.8C649.3 170 663.7 167 677.8 165.5C692 164 706 164 713 164L720 164L720 181L713 181C706 181 692 181 677.8 181C663.7 181 649.3 181 635.2 181C621 181 607 181 593 181C579 181 565 181 550.8 181C536.7 181 522.3 181 508.2 181C494 181 480 181 466 181C452 181 438 181 423.8 181C409.7 181 395.3 181 381.2 181C367 181 353 181 338.8 181C324.7 181 310.3 181 296.2 181C282 181 268 181 254 181C240 181 226 181 211.8 181C197.7 181 183.3 181 169.2 181C155 181 141 181 127 181C113 181 99 181 84.8 181C70.7 181 56.3 181 42.2 181C28 181 14 181 7 181L0 181Z" fill="#c62368"></path></svg>