<svg id="visual" viewBox="0 0 3076 368" width="3076" height="768" xmlns="http://www.w3.org/2000/svg" xmlns:xlink="http://www.w3.org/1999/xlink" version="1.1"><path class="waves"  d="M0 412L30.2 411.2C60.3 410.3 120.7 408.7 181 397.5C241.3 386.3 301.7 365.7 362 384.3C422.3 403 482.7 461 543 473.2C603.3 485.3 663.7 451.7 724 453.3C784.3 455 844.7 492 905 488.2C965.3 484.3 1025.7 439.7 1086 427.5C1146.3 415.3 1206.7 435.7 1267 458.5C1327.3 481.3 1387.7 506.7 1447.8 493.3C1508 480 1568 428 1628.2 391.8C1688.3 355.7 1748.7 335.3 1809 337.3C1869.3 339.3 1929.7 363.7 1990 393.2C2050.3 422.7 2110.7 457.3 2171 451.3C2231.3 445.3 2291.7 398.7 2352 383.2C2412.3 367.7 2472.7 383.3 2533 388.3C2593.3 393.3 2653.7 387.7 2714 372C2774.3 356.3 2834.7 330.7 2895 344.2C2955.3 357.7 3015.7 410.3 3045.8 436.7L3076 463L3076 769L3045.8 769C3015.7 769 2955.3 769 2895 769C2834.7 769 2774.3 769 2714 769C2653.7 769 2593.3 769 2533 769C2472.7 769 2412.3 769 2352 769C2291.7 769 2231.3 769 2171 769C2110.7 769 2050.3 769 1990 769C1929.7 769 1869.3 769 1809 769C1748.7 769 1688.3 769 1628.2 769C1568 769 1508 769 1447.8 769C1387.7 769 1327.3 769 1267 769C1206.7 769 1146.3 769 1086 769C1025.7 769 965.3 769 905 769C844.7 769 784.3 769 724 769C663.7 769 603.3 769 543 769C482.7 769 422.3 769 362 769C301.7 769 241.3 769 181 769C120.7 769 60.3 769 30.2 769L0 769Z" fill="#fa7268"></path><path class="waves"  d="M0 375L30.2 380.3C60.3 385.7 120.7 396.3 181 399.3C241.3 402.3 301.7 397.7 362 413.3C422.3 429 482.7 465 543 470.3C603.3 475.7 663.7 450.3 724 420.5C784.3 390.7 844.7 356.3 905 365C965.3 373.7 1025.7 425.3 1086 450.2C1146.3 475 1206.7 473 1267 454.7C1327.3 436.3 1387.7 401.7 1447.8 387.3C1508 373 1568 379 1628.2 388.2C1688.3 397.3 1748.7 409.7 1809 418.2C1869.3 426.7 1929.7 431.3 1990 420.7C2050.3 410 2110.7 384 2171 401C2231.3 418 2291.7 478 2352 507.5C2412.3 537 2472.7 536 2533 521.8C2593.3 507.7 2653.7 480.3 2714 445.2C2774.3 410 2834.7 367 2895 348.3C2955.3 329.7 3015.7 335.3 3045.8 338.2L3076 341L3076 769L3045.8 769C3015.7 769 2955.3 769 2895 769C2834.7 769 2774.3 769 2714 769C2653.7 769 2593.3 769 2533 769C2472.7 769 2412.3 769 2352 769C2291.7 769 2231.3 769 2171 769C2110.7 769 2050.3 769 1990 769C1929.7 769 1869.3 769 1809 769C1748.7 769 1688.3 769 1628.2 769C1568 769 1508 769 1447.8 769C1387.7 769 1327.3 769 1267 769C1206.7 769 1146.3 769 1086 769C1025.7 769 965.3 769 905 769C844.7 769 784.3 769 724 769C663.7 769 603.3 769 543 769C482.7 769 422.3 769 362 769C301.7 769 241.3 769 181 769C120.7 769 60.3 769 30.2 769L0 769Z" fill="#f66b68"></path><path class="waves"  d="M0 509L30.2 489.3C60.3 469.7 120.7 430.3 181 409.3C241.3 388.3 301.7 385.7 362 392.2C422.3 398.7 482.7 414.3 543 440.8C603.3 467.3 663.7 504.7 724 522.5C784.3 540.3 844.7 538.7 905 508C965.3 477.3 1025.7 417.7 1086 413.5C1146.3 409.3 1206.7 460.7 1267 477.3C1327.3 494 1387.7 476 1447.8 473.8C1508 471.7 1568 485.3 1628.2 489.3C1688.3 493.3 1748.7 487.7 1809 476.8C1869.3 466 1929.7 450 1990 439.3C2050.3 428.7 2110.7 423.3 2171 422.2C2231.3 421 2291.7 424 2352 435.3C2412.3 446.7 2472.7 466.3 2533 461C2593.3 455.7 2653.7 425.3 2714 413.5C2774.3 401.7 2834.7 408.3 2895 403.3C2955.3 398.3 3015.7 381.7 3045.8 373.3L3076 365L3076 769L3045.8 769C3015.7 769 2955.3 769 2895 769C2834.7 769 2774.3 769 2714 769C2653.7 769 2593.3 769 2533 769C2472.7 769 2412.3 769 2352 769C2291.7 769 2231.3 769 2171 769C2110.7 769 2050.3 769 1990 769C1929.7 769 1869.3 769 1809 769C1748.7 769 1688.3 769 1628.2 769C1568 769 1508 769 1447.8 769C1387.7 769 1327.3 769 1267 769C1206.7 769 1146.3 769 1086 769C1025.7 769 965.3 769 905 769C844.7 769 784.3 769 724 769C663.7 769 603.3 769 543 769C482.7 769 422.3 769 362 769C301.7 769 241.3 769 181 769C120.7 769 60.3 769 30.2 769L0 769Z" fill="#f26467"></path><path class="waves"  d="M0 539L30.2 523C60.3 507 120.7 475 181 457.3C241.3 439.7 301.7 436.3 362 435.5C422.3 434.7 482.7 436.3 543 457.8C603.3 479.3 663.7 520.7 724 525.5C784.3 530.3 844.7 498.7 905 496.8C965.3 495 1025.7 523 1086 513C1146.3 503 1206.7 455 1267 436.8C1327.3 418.7 1387.7 430.3 1447.8 436C1508 441.7 1568 441.3 1628.2 463.2C1688.3 485 1748.7 529 1809 540.7C1869.3 552.3 1929.7 531.7 1990 524.2C2050.3 516.7 2110.7 522.3 2171 522.8C2231.3 523.3 2291.7 518.7 2352 513C2412.3 507.3 2472.7 500.7 2533 485C2593.3 469.3 2653.7 444.7 2714 436.7C2774.3 428.7 2834.7 437.3 2895 464.7C2955.3 492 3015.7 538 3045.8 561L3076 584L3076 769L3045.8 769C3015.7 769 2955.3 769 2895 769C2834.7 769 2774.3 769 2714 769C2653.7 769 2593.3 769 2533 769C2472.7 769 2412.3 769 2352 769C2291.7 769 2231.3 769 2171 769C2110.7 769 2050.3 769 1990 769C1929.7 769 1869.3 769 1809 769C1748.7 769 1688.3 769 1628.2 769C1568 769 1508 769 1447.8 769C1387.7 769 1327.3 769 1267 769C1206.7 769 1146.3 769 1086 769C1025.7 769 965.3 769 905 769C844.7 769 784.3 769 724 769C663.7 769 603.3 769 543 769C482.7 769 422.3 769 362 769C301.7 769 241.3 769 181 769C120.7 769 60.3 769 30.2 769L0 769Z" fill="#ee5d67"></path><path class="waves"  d="M0 478L30.2 471.7C60.3 465.3 120.7 452.7 181 472.3C241.3 492 301.7 544 362 546.5C422.3 549 482.7 502 543 499.3C603.3 496.7 663.7 538.3 724 554.8C784.3 571.3 844.7 562.7 905 566.2C965.3 569.7 1025.7 585.3 1086 573C1146.3 560.7 1206.7 520.3 1267 493.3C1327.3 466.3 1387.7 452.7 1447.8 444.8C1508 437 1568 435 1628.2 438.3C1688.3 441.7 1748.7 450.3 1809 451.3C1869.3 452.3 1929.7 445.7 1990 442C2050.3 438.3 2110.7 437.7 2171 460.2C2231.3 482.7 2291.7 528.3 2352 550.2C2412.3 572 2472.7 570 2533 568.3C2593.3 566.7 2653.7 565.3 2714 555.8C2774.3 546.3 2834.7 528.7 2895 515.3C2955.3 502 3015.7 493 3045.8 488.5L3076 484L3076 769L3045.8 769C3015.7 769 2955.3 769 2895 769C2834.7 769 2774.3 769 2714 769C2653.7 769 2593.3 769 2533 769C2472.7 769 2412.3 769 2352 769C2291.7 769 2231.3 769 2171 769C2110.7 769 2050.3 769 1990 769C1929.7 769 1869.3 769 1809 769C1748.7 769 1688.3 769 1628.2 769C1568 769 1508 769 1447.8 769C1387.7 769 1327.3 769 1267 769C1206.7 769 1146.3 769 1086 769C1025.7 769 965.3 769 905 769C844.7 769 784.3 769 724 769C663.7 769 603.3 769 543 769C482.7 769 422.3 769 362 769C301.7 769 241.3 769 181 769C120.7 769 60.3 769 30.2 769L0 769Z" fill="#ea5667"></path><path class="waves"  d="M0 528L30.2 526.2C60.3 524.3 120.7 520.7 181 519.8C241.3 519 301.7 521 362 525.7C422.3 530.3 482.7 537.7 543 547.5C603.3 557.3 663.7 569.7 724 573.8C784.3 578 844.7 574 905 556C965.3 538 1025.7 506 1086 491.7C1146.3 477.3 1206.7 480.7 1267 498.2C1327.3 515.7 1387.7 547.3 1447.8 570C1508 592.7 1568 606.3 1628.2 594.5C1688.3 582.7 1748.7 545.3 1809 533.8C1869.3 522.3 1929.7 536.7 1990 539.7C2050.3 542.7 2110.7 534.3 2171 530.3C2231.3 526.3 2291.7 526.7 2352 536.3C2412.3 546 2472.7 565 2533 576.2C2593.3 587.3 2653.7 590.7 2714 596.7C2774.3 602.7 2834.7 611.3 2895 602.8C2955.3 594.3 3015.7 568.7 3045.8 555.8L3076 543L3076 769L3045.8 769C3015.7 769 2955.3 769 2895 769C2834.7 769 2774.3 769 2714 769C2653.7 769 2593.3 769 2533 769C2472.7 769 2412.3 769 2352 769C2291.7 769 2231.3 769 2171 769C2110.7 769 2050.3 769 1990 769C1929.7 769 1869.3 769 1809 769C1748.7 769 1688.3 769 1628.2 769C1568 769 1508 769 1447.8 769C1387.7 769 1327.3 769 1267 769C1206.7 769 1146.3 769 1086 769C1025.7 769 965.3 769 905 769C844.7 769 784.3 769 724 769C663.7 769 603.3 769 543 769C482.7 769 422.3 769 362 769C301.7 769 241.3 769 181 769C120.7 769 60.3 769 30.2 769L0 769Z" fill="#e54f67"></path><path class="waves"  d="M0 623L30.2 609.5C60.3 596 120.7 569 181 569.5C241.3 570 301.7 598 362 610.2C422.3 622.3 482.7 618.7 543 600.7C603.3 582.7 663.7 550.3 724 546.3C784.3 542.3 844.7 566.7 905 584.5C965.3 602.3 1025.7 613.7 1086 600.7C1146.3 587.7 1206.7 550.3 1267 550.7C1327.3 551 1387.7 589 1447.8 598.5C1508 608 1568 589 1628.2 570.5C1688.3 552 1748.7 534 1809 543.2C1869.3 552.3 1929.7 588.7 1990 603.2C2050.3 617.7 2110.7 610.3 2171 600.8C2231.3 591.3 2291.7 579.7 2352 567.8C2412.3 556 2472.7 544 2533 543.7C2593.3 543.3 2653.7 554.7 2714 558.5C2774.3 562.3 2834.7 558.7 2895 558.2C2955.3 557.7 3015.7 560.3 3045.8 561.7L3076 563L3076 769L3045.8 769C3015.7 769 2955.3 769 2895 769C2834.7 769 2774.3 769 2714 769C2653.7 769 2593.3 769 2533 769C2472.7 769 2412.3 769 2352 769C2291.7 769 2231.3 769 2171 769C2110.7 769 2050.3 769 1990 769C1929.7 769 1869.3 769 1809 769C1748.7 769 1688.3 769 1628.2 769C1568 769 1508 769 1447.8 769C1387.7 769 1327.3 769 1267 769C1206.7 769 1146.3 769 1086 769C1025.7 769 965.3 769 905 769C844.7 769 784.3 769 724 769C663.7 769 603.3 769 543 769C482.7 769 422.3 769 362 769C301.7 769 241.3 769 181 769C120.7 769 60.3 769 30.2 769L0 769Z" fill="#e14867"></path><path class="waves"  d="M0 641L30.2 635.5C60.3 630 120.7 619 181 613.3C241.3 607.7 301.7 607.3 362 603C422.3 598.7 482.7 590.3 543 587.3C603.3 584.3 663.7 586.7 724 595.5C784.3 604.3 844.7 619.7 905 628.7C965.3 637.7 1025.7 640.3 1086 642.5C1146.3 644.7 1206.7 646.3 1267 647.5C1327.3 648.7 1387.7 649.3 1447.8 637.2C1508 625 1568 600 1628.2 599.2C1688.3 598.3 1748.7 621.7 1809 631.8C1869.3 642 1929.7 639 1990 640.3C2050.3 641.7 2110.7 647.3 2171 649.7C2231.3 652 2291.7 651 2352 653.3C2412.3 655.7 2472.7 661.3 2533 658.5C2593.3 655.7 2653.7 644.3 2714 644.2C2774.3 644 2834.7 655 2895 646.5C2955.3 638 3015.7 610 3045.8 596L3076 582L3076 769L3045.8 769C3015.7 769 2955.3 769 2895 769C2834.7 769 2774.3 769 2714 769C2653.7 769 2593.3 769 2533 769C2472.7 769 2412.3 769 2352 769C2291.7 769 2231.3 769 2171 769C2110.7 769 2050.3 769 1990 769C1929.7 769 1869.3 769 1809 769C1748.7 769 1688.3 769 1628.2 769C1568 769 1508 769 1447.8 769C1387.7 769 1327.3 769 1267 769C1206.7 769 1146.3 769 1086 769C1025.7 769 965.3 769 905 769C844.7 769 784.3 769 724 769C663.7 769 603.3 769 543 769C482.7 769 422.3 769 362 769C301.7 769 241.3 769 181 769C120.7 769 60.3 769 30.2 769L0 769Z" fill="#dc4167"></path><path class="waves"  d="M0 639L30.2 632.5C60.3 626 120.7 613 181 618.8C241.3 624.7 301.7 649.3 362 656.2C422.3 663 482.7 652 543 651.5C603.3 651 663.7 661 724 664.5C784.3 668 844.7 665 905 666.8C965.3 668.7 1025.7 675.3 1086 673.3C1146.3 671.3 1206.7 660.7 1267 648.2C1327.3 635.7 1387.7 621.3 1447.8 623C1508 624.7 1568 642.3 1628.2 649C1688.3 655.7 1748.7 651.3 1809 641.8C1869.3 632.3 1929.7 617.7 1990 612.2C2050.3 606.7 2110.7 610.3 2171 607.8C2231.3 605.3 2291.7 596.7 2352 599.5C2412.3 602.3 2472.7 616.7 2533 618.2C2593.3 619.7 2653.7 608.3 2714 612.7C2774.3 617 2834.7 637 2895 637.8C2955.3 638.7 3015.7 620.3 3045.8 611.2L3076 602L3076 769L3045.8 769C3015.7 769 2955.3 769 2895 769C2834.7 769 2774.3 769 2714 769C2653.7 769 2593.3 769 2533 769C2472.7 769 2412.3 769 2352 769C2291.7 769 2231.3 769 2171 769C2110.7 769 2050.3 769 1990 769C1929.7 769 1869.3 769 1809 769C1748.7 769 1688.3 769 1628.2 769C1568 769 1508 769 1447.8 769C1387.7 769 1327.3 769 1267 769C1206.7 769 1146.3 769 1086 769C1025.7 769 965.3 769 905 769C844.7 769 784.3 769 724 769C663.7 769 603.3 769 543 769C482.7 769 422.3 769 362 769C301.7 769 241.3 769 181 769C120.7 769 60.3 769 30.2 769L0 769Z" fill="#d73a67"></path><path class="waves"  d="M0 676L30.2 670C60.3 664 120.7 652 181 647.7C241.3 643.3 301.7 646.7 362 644.8C422.3 643 482.7 636 543 645C603.3 654 663.7 679 724 688.5C784.3 698 844.7 692 905 686.2C965.3 680.3 1025.7 674.7 1086 666.3C1146.3 658 1206.7 647 1267 644.5C1327.3 642 1387.7 648 1447.8 651.5C1508 655 1568 656 1628.2 654.2C1688.3 652.3 1748.7 647.7 1809 647.2C1869.3 646.7 1929.7 650.3 1990 653C2050.3 655.7 2110.7 657.3 2171 665.3C2231.3 673.3 2291.7 687.7 2352 695C2412.3 702.3 2472.7 702.7 2533 694.8C2593.3 687 2653.7 671 2714 663.5C2774.3 656 2834.7 657 2895 663C2955.3 669 3015.7 680 3045.8 685.5L3076 691L3076 769L3045.8 769C3015.7 769 2955.3 769 2895 769C2834.7 769 2774.3 769 2714 769C2653.7 769 2593.3 769 2533 769C2472.7 769 2412.3 769 2352 769C2291.7 769 2231.3 769 2171 769C2110.7 769 2050.3 769 1990 769C1929.7 769 1869.3 769 1809 769C1748.7 769 1688.3 769 1628.2 769C1568 769 1508 769 1447.8 769C1387.7 769 1327.3 769 1267 769C1206.7 769 1146.3 769 1086 769C1025.7 769 965.3 769 905 769C844.7 769 784.3 769 724 769C663.7 769 603.3 769 543 769C482.7 769 422.3 769 362 769C301.7 769 241.3 769 181 769C120.7 769 60.3 769 30.2 769L0 769Z" fill="#d13367"></path><path class="waves"  d="M0 713L30.2 709.7C60.3 706.3 120.7 699.7 181 700.3C241.3 701 301.7 709 362 711.3C422.3 713.7 482.7 710.3 543 707.2C603.3 704 663.7 701 724 695C784.3 689 844.7 680 905 678.5C965.3 677 1025.7 683 1086 688.3C1146.3 693.7 1206.7 698.3 1267 701.5C1327.3 704.7 1387.7 706.3 1447.8 706.3C1508 706.3 1568 704.7 1628.2 698.8C1688.3 693 1748.7 683 1809 685.2C1869.3 687.3 1929.7 701.7 1990 701.8C2050.3 702 2110.7 688 2171 689.3C2231.3 690.7 2291.7 707.3 2352 705.5C2412.3 703.7 2472.7 683.3 2533 681.5C2593.3 679.7 2653.7 696.3 2714 704.2C2774.3 712 2834.7 711 2895 705.7C2955.3 700.3 3015.7 690.7 3045.8 685.8L3076 681L3076 769L3045.8 769C3015.7 769 2955.3 769 2895 769C2834.7 769 2774.3 769 2714 769C2653.7 769 2593.3 769 2533 769C2472.7 769 2412.3 769 2352 769C2291.7 769 2231.3 769 2171 769C2110.7 769 2050.3 769 1990 769C1929.7 769 1869.3 769 1809 769C1748.7 769 1688.3 769 1628.2 769C1568 769 1508 769 1447.8 769C1387.7 769 1327.3 769 1267 769C1206.7 769 1146.3 769 1086 769C1025.7 769 965.3 769 905 769C844.7 769 784.3 769 724 769C663.7 769 603.3 769 543 769C482.7 769 422.3 769 362 769C301.7 769 241.3 769 181 769C120.7 769 60.3 769 30.2 769L0 769Z" fill="#cc2b68"></path><path class="waves"  d="M0 728L30.2 726.7C60.3 725.3 120.7 722.7 181 719.3C241.3 716 301.7 712 362 712.2C422.3 712.3 482.7 716.7 543 717.7C603.3 718.7 663.7 716.3 724 713.2C784.3 710 844.7 706 905 709.7C965.3 713.3 1025.7 724.7 1086 726.3C1146.3 728 1206.7 720 1267 720C1327.3 720 1387.7 728 1447.8 727.3C1508 726.7 1568 717.3 1628.2 716.8C1688.3 716.3 1748.7 724.7 1809 728C1869.3 731.3 1929.7 729.7 1990 728C2050.3 726.3 2110.7 724.7 2171 725.3C2231.3 726 2291.7 729 2352 729.3C2412.3 729.7 2472.7 727.3 2533 728.8C2593.3 730.3 2653.7 735.7 2714 732C2774.3 728.3 2834.7 715.7 2895 709C2955.3 702.3 3015.7 701.7 3045.8 701.3L3076 701L3076 769L3045.8 769C3015.7 769 2955.3 769 2895 769C2834.7 769 2774.3 769 2714 769C2653.7 769 2593.3 769 2533 769C2472.7 769 2412.3 769 2352 769C2291.7 769 2231.3 769 2171 769C2110.7 769 2050.3 769 1990 769C1929.7 769 1869.3 769 1809 769C1748.7 769 1688.3 769 1628.2 769C1568 769 1508 769 1447.8 769C1387.7 769 1327.3 769 1267 769C1206.7 769 1146.3 769 1086 769C1025.7 769 965.3 769 905 769C844.7 769 784.3 769 724 769C663.7 769 603.3 769 543 769C482.7 769 422.3 769 362 769C301.7 769 241.3 769 181 769C120.7 769 60.3 769 30.2 769L0 769Z" fill="#c62368"></path></svg>