<svg id="visual" viewBox="0 0 2160 368" width="2160" height="368" xmlns="http://www.w3.org/2000/svg" xmlns:xlink="http://www.w3.org/1999/xlink" version="1.1"><path class="waves"  d="M0 197L21.2 196.7C42.3 196.3 84.7 195.7 127 190.3C169.3 185 211.7 175 254 183.8C296.3 192.7 338.7 220.3 381 226.2C423.3 232 465.7 216 508 216.8C550.3 217.7 592.7 235.3 635 233.5C677.3 231.7 719.7 210.3 762 204.5C804.3 198.7 846.7 208.3 889 219.3C931.3 230.3 973.7 242.7 1016.2 236.3C1058.7 230 1101.3 205 1143.8 187.5C1186.3 170 1228.7 160 1271 161C1313.3 162 1355.7 174 1398 188.2C1440.3 202.3 1482.7 218.7 1525 215.7C1567.3 212.7 1609.7 190.3 1652 183C1694.3 175.7 1736.7 183.3 1779 185.8C1821.3 188.3 1863.7 185.7 1906 178.2C1948.3 170.7 1990.7 158.3 2033 164.7C2075.3 171 2117.7 196 2138.8 208.5L2160 221L2160 369L2138.8 369C2117.7 369 2075.3 369 2033 369C1990.7 369 1948.3 369 1906 369C1863.7 369 1821.3 369 1779 369C1736.7 369 1694.3 369 1652 369C1609.7 369 1567.3 369 1525 369C1482.7 369 1440.3 369 1398 369C1355.7 369 1313.3 369 1271 369C1228.7 369 1186.3 369 1143.8 369C1101.3 369 1058.7 369 1016.2 369C973.7 369 931.3 369 889 369C846.7 369 804.3 369 762 369C719.7 369 677.3 369 635 369C592.7 369 550.3 369 508 369C465.7 369 423.3 369 381 369C338.7 369 296.3 369 254 369C211.7 369 169.3 369 127 369C84.7 369 42.3 369 21.2 369L0 369Z" fill="#fa7268"></path><path class="waves"  d="M0 179L21.2 181.5C42.3 184 84.7 189 127 190.5C169.3 192 211.7 190 254 197.7C296.3 205.3 338.7 222.7 381 225.2C423.3 227.7 465.7 215.3 508 201C550.3 186.7 592.7 170.3 635 174.5C677.3 178.7 719.7 203.3 762 215.2C804.3 227 846.7 226 889 217.2C931.3 208.3 973.7 191.7 1016.2 184.8C1058.7 178 1101.3 181 1143.8 185.5C1186.3 190 1228.7 196 1271 200.2C1313.3 204.3 1355.7 206.7 1398 201.5C1440.3 196.3 1482.7 183.7 1525 191.7C1567.3 199.7 1609.7 228.3 1652 242.5C1694.3 256.7 1736.7 256.3 1779 249.5C1821.3 242.7 1863.7 229.3 1906 212.5C1948.3 195.7 1990.7 175.3 2033 166.5C2075.3 157.7 2117.7 160.3 2138.8 161.7L2160 163L2160 369L2138.8 369C2117.7 369 2075.3 369 2033 369C1990.7 369 1948.3 369 1906 369C1863.7 369 1821.3 369 1779 369C1736.7 369 1694.3 369 1652 369C1609.7 369 1567.3 369 1525 369C1482.7 369 1440.3 369 1398 369C1355.7 369 1313.3 369 1271 369C1228.7 369 1186.3 369 1143.8 369C1101.3 369 1058.7 369 1016.2 369C973.7 369 931.3 369 889 369C846.7 369 804.3 369 762 369C719.7 369 677.3 369 635 369C592.7 369 550.3 369 508 369C465.7 369 423.3 369 381 369C338.7 369 296.3 369 254 369C211.7 369 169.3 369 127 369C84.7 369 42.3 369 21.2 369L0 369Z" fill="#f66b68"></path><path class="waves"  d="M0 243L21.2 233.7C42.3 224.3 84.7 205.7 127 195.7C169.3 185.7 211.7 184.3 254 187.5C296.3 190.7 338.7 198.3 381 211C423.3 223.7 465.7 241.3 508 249.8C550.3 258.3 592.7 257.7 635 243C677.3 228.3 719.7 199.7 762 197.7C804.3 195.7 846.7 220.3 889 228.3C931.3 236.3 973.7 227.7 1016.2 226.7C1058.7 225.7 1101.3 232.3 1143.8 234.2C1186.3 236 1228.7 233 1271 227.8C1313.3 222.7 1355.7 215.3 1398 210.3C1440.3 205.3 1482.7 202.7 1525 202C1567.3 201.3 1609.7 202.7 1652 208.2C1694.3 213.7 1736.7 223.3 1779 220.8C1821.3 218.3 1863.7 203.7 1906 197.8C1948.3 192 1990.7 195 2033 192.5C2075.3 190 2117.7 182 2138.8 178L2160 174L2160 369L2138.8 369C2117.7 369 2075.3 369 2033 369C1990.7 369 1948.3 369 1906 369C1863.7 369 1821.3 369 1779 369C1736.7 369 1694.3 369 1652 369C1609.7 369 1567.3 369 1525 369C1482.7 369 1440.3 369 1398 369C1355.7 369 1313.3 369 1271 369C1228.7 369 1186.3 369 1143.8 369C1101.3 369 1058.7 369 1016.2 369C973.7 369 931.3 369 889 369C846.7 369 804.3 369 762 369C719.7 369 677.3 369 635 369C592.7 369 550.3 369 508 369C465.7 369 423.3 369 381 369C338.7 369 296.3 369 254 369C211.7 369 169.3 369 127 369C84.7 369 42.3 369 21.2 369L0 369Z" fill="#f26467"></path><path class="waves"  d="M0 258L21.2 250.3C42.3 242.7 84.7 227.3 127 218.8C169.3 210.3 211.7 208.7 254 208.2C296.3 207.7 338.7 208.3 381 218.7C423.3 229 465.7 249 508 251.3C550.3 253.7 592.7 238.3 635 237.5C677.3 236.7 719.7 250.3 762 245.7C804.3 241 846.7 218 889 209.2C931.3 200.3 973.7 205.7 1016.2 208.3C1058.7 211 1101.3 211 1143.8 221.5C1186.3 232 1228.7 253 1271 258.7C1313.3 264.3 1355.7 254.7 1398 251C1440.3 247.3 1482.7 249.7 1525 249.8C1567.3 250 1609.7 248 1652 245.3C1694.3 242.7 1736.7 239.3 1779 231.8C1821.3 224.3 1863.7 212.7 1906 208.8C1948.3 205 1990.7 209 2033 222C2075.3 235 2117.7 257 2138.8 268L2160 279L2160 369L2138.8 369C2117.7 369 2075.3 369 2033 369C1990.7 369 1948.3 369 1906 369C1863.7 369 1821.3 369 1779 369C1736.7 369 1694.3 369 1652 369C1609.7 369 1567.3 369 1525 369C1482.7 369 1440.3 369 1398 369C1355.7 369 1313.3 369 1271 369C1228.7 369 1186.3 369 1143.8 369C1101.3 369 1058.7 369 1016.2 369C973.7 369 931.3 369 889 369C846.7 369 804.3 369 762 369C719.7 369 677.3 369 635 369C592.7 369 550.3 369 508 369C465.7 369 423.3 369 381 369C338.7 369 296.3 369 254 369C211.7 369 169.3 369 127 369C84.7 369 42.3 369 21.2 369L0 369Z" fill="#ee5d67"></path><path class="waves"  d="M0 229L21.2 225.8C42.3 222.7 84.7 216.3 127 225.7C169.3 235 211.7 260 254 261.3C296.3 262.7 338.7 240.3 381 239C423.3 237.7 465.7 257.3 508 265.2C550.3 273 592.7 269 635 270.7C677.3 272.3 719.7 279.7 762 273.7C804.3 267.7 846.7 248.3 889 235.5C931.3 222.7 973.7 216.3 1016.2 212.7C1058.7 209 1101.3 208 1143.8 209.5C1186.3 211 1228.7 215 1271 215.5C1313.3 216 1355.7 213 1398 211.3C1440.3 209.7 1482.7 209.3 1525 220C1567.3 230.7 1609.7 252.3 1652 262.7C1694.3 273 1736.7 272 1779 271.3C1821.3 270.7 1863.7 270.3 1906 265.8C1948.3 261.3 1990.7 252.7 2033 246.2C2075.3 239.7 2117.7 235.3 2138.8 233.2L2160 231L2160 369L2138.8 369C2117.7 369 2075.3 369 2033 369C1990.7 369 1948.3 369 1906 369C1863.7 369 1821.3 369 1779 369C1736.7 369 1694.3 369 1652 369C1609.7 369 1567.3 369 1525 369C1482.7 369 1440.3 369 1398 369C1355.7 369 1313.3 369 1271 369C1228.7 369 1186.3 369 1143.8 369C1101.3 369 1058.7 369 1016.2 369C973.7 369 931.3 369 889 369C846.7 369 804.3 369 762 369C719.7 369 677.3 369 635 369C592.7 369 550.3 369 508 369C465.7 369 423.3 369 381 369C338.7 369 296.3 369 254 369C211.7 369 169.3 369 127 369C84.7 369 42.3 369 21.2 369L0 369Z" fill="#ea5667"></path><path class="waves"  d="M0 253L21.2 252C42.3 251 84.7 249 127 248.5C169.3 248 211.7 249 254 251.3C296.3 253.7 338.7 257.3 381 262C423.3 266.7 465.7 272.3 508 274.3C550.3 276.3 592.7 274.7 635 266.2C677.3 257.7 719.7 242.3 762 235.3C804.3 228.3 846.7 229.7 889 238C931.3 246.3 973.7 261.7 1016.2 272.7C1058.7 283.7 1101.3 290.3 1143.8 284.7C1186.3 279 1228.7 261 1271 255.5C1313.3 250 1355.7 257 1398 258.3C1440.3 259.7 1482.7 255.3 1525 253.3C1567.3 251.3 1609.7 251.7 1652 256.3C1694.3 261 1736.7 270 1779 275.3C1821.3 280.7 1863.7 282.3 1906 285.2C1948.3 288 1990.7 292 2033 288C2075.3 284 2117.7 272 2138.8 266L2160 260L2160 369L2138.8 369C2117.7 369 2075.3 369 2033 369C1990.7 369 1948.3 369 1906 369C1863.7 369 1821.3 369 1779 369C1736.7 369 1694.3 369 1652 369C1609.7 369 1567.3 369 1525 369C1482.7 369 1440.3 369 1398 369C1355.7 369 1313.3 369 1271 369C1228.7 369 1186.3 369 1143.8 369C1101.3 369 1058.7 369 1016.2 369C973.7 369 931.3 369 889 369C846.7 369 804.3 369 762 369C719.7 369 677.3 369 635 369C592.7 369 550.3 369 508 369C465.7 369 423.3 369 381 369C338.7 369 296.3 369 254 369C211.7 369 169.3 369 127 369C84.7 369 42.3 369 21.2 369L0 369Z" fill="#e54f67"></path><path class="waves"  d="M0 298L21.2 291.5C42.3 285 84.7 272 127 272.3C169.3 272.7 211.7 286.3 254 292.2C296.3 298 338.7 296 381 287.3C423.3 278.7 465.7 263.3 508 261.5C550.3 259.7 592.7 271.3 635 279.8C677.3 288.3 719.7 293.7 762 287.3C804.3 281 846.7 263 889 263.2C931.3 263.3 973.7 281.7 1016.2 286.3C1058.7 291 1101.3 282 1143.8 273.2C1186.3 264.3 1228.7 255.7 1271 260C1313.3 264.3 1355.7 281.7 1398 288.7C1440.3 295.7 1482.7 292.3 1525 287.8C1567.3 283.3 1609.7 277.7 1652 271.8C1694.3 266 1736.7 260 1779 259.7C1821.3 259.3 1863.7 264.7 1906 266.5C1948.3 268.3 1990.7 266.7 2033 266.5C2075.3 266.3 2117.7 267.7 2138.8 268.3L2160 269L2160 369L2138.8 369C2117.7 369 2075.3 369 2033 369C1990.7 369 1948.3 369 1906 369C1863.7 369 1821.3 369 1779 369C1736.7 369 1694.3 369 1652 369C1609.7 369 1567.3 369 1525 369C1482.7 369 1440.3 369 1398 369C1355.7 369 1313.3 369 1271 369C1228.7 369 1186.3 369 1143.8 369C1101.3 369 1058.7 369 1016.2 369C973.7 369 931.3 369 889 369C846.7 369 804.3 369 762 369C719.7 369 677.3 369 635 369C592.7 369 550.3 369 508 369C465.7 369 423.3 369 381 369C338.7 369 296.3 369 254 369C211.7 369 169.3 369 127 369C84.7 369 42.3 369 21.2 369L0 369Z" fill="#e14867"></path><path class="waves"  d="M0 306L21.2 303.5C42.3 301 84.7 296 127 293.3C169.3 290.7 211.7 290.3 254 288.2C296.3 286 338.7 282 381 280.7C423.3 279.3 465.7 280.7 508 285C550.3 289.3 592.7 296.7 635 300.8C677.3 305 719.7 306 762 307C804.3 308 846.7 309 889 309.7C931.3 310.3 973.7 310.7 1016.2 304.8C1058.7 299 1101.3 287 1143.8 286.5C1186.3 286 1228.7 297 1271 301.8C1313.3 306.7 1355.7 305.3 1398 306C1440.3 306.7 1482.7 309.3 1525 310.5C1567.3 311.7 1609.7 311.3 1652 312.5C1694.3 313.7 1736.7 316.3 1779 315C1821.3 313.7 1863.7 308.3 1906 308.3C1948.3 308.3 1990.7 313.7 2033 309.7C2075.3 305.7 2117.7 292.3 2138.8 285.7L2160 279L2160 369L2138.8 369C2117.7 369 2075.3 369 2033 369C1990.7 369 1948.3 369 1906 369C1863.7 369 1821.3 369 1779 369C1736.7 369 1694.3 369 1652 369C1609.7 369 1567.3 369 1525 369C1482.7 369 1440.3 369 1398 369C1355.7 369 1313.3 369 1271 369C1228.7 369 1186.3 369 1143.8 369C1101.3 369 1058.7 369 1016.2 369C973.7 369 931.3 369 889 369C846.7 369 804.3 369 762 369C719.7 369 677.3 369 635 369C592.7 369 550.3 369 508 369C465.7 369 423.3 369 381 369C338.7 369 296.3 369 254 369C211.7 369 169.3 369 127 369C84.7 369 42.3 369 21.2 369L0 369Z" fill="#dc4167"></path><path class="waves"  d="M0 306L21.2 302.8C42.3 299.7 84.7 293.3 127 296C169.3 298.7 211.7 310.3 254 313.7C296.3 317 338.7 312 381 311.8C423.3 311.7 465.7 316.3 508 318C550.3 319.7 592.7 318.3 635 319.2C677.3 320 719.7 323 762 322C804.3 321 846.7 316 889 310C931.3 304 973.7 297 1016.2 297.8C1058.7 298.7 1101.3 307.3 1143.8 310.5C1186.3 313.7 1228.7 311.3 1271 306.8C1313.3 302.3 1355.7 295.7 1398 293.2C1440.3 290.7 1482.7 292.3 1525 291C1567.3 289.7 1609.7 285.3 1652 286.7C1694.3 288 1736.7 295 1779 295.7C1821.3 296.3 1863.7 290.7 1906 292.7C1948.3 294.7 1990.7 304.3 2033 304.8C2075.3 305.3 2117.7 296.7 2138.8 292.3L2160 288L2160 369L2138.8 369C2117.7 369 2075.3 369 2033 369C1990.7 369 1948.3 369 1906 369C1863.7 369 1821.3 369 1779 369C1736.7 369 1694.3 369 1652 369C1609.7 369 1567.3 369 1525 369C1482.7 369 1440.3 369 1398 369C1355.7 369 1313.3 369 1271 369C1228.7 369 1186.3 369 1143.8 369C1101.3 369 1058.7 369 1016.2 369C973.7 369 931.3 369 889 369C846.7 369 804.3 369 762 369C719.7 369 677.3 369 635 369C592.7 369 550.3 369 508 369C465.7 369 423.3 369 381 369C338.7 369 296.3 369 254 369C211.7 369 169.3 369 127 369C84.7 369 42.3 369 21.2 369L0 369Z" fill="#d73a67"></path><path class="waves"  d="M0 323L21.2 320.2C42.3 317.3 84.7 311.7 127 309.7C169.3 307.7 211.7 309.3 254 308.5C296.3 307.7 338.7 304.3 381 308.7C423.3 313 465.7 325 508 329.5C550.3 334 592.7 331 635 328.2C677.3 325.3 719.7 322.7 762 318.7C804.3 314.7 846.7 309.3 889 308.2C931.3 307 973.7 310 1016.2 311.7C1058.7 313.3 1101.3 313.7 1143.8 312.8C1186.3 312 1228.7 310 1271 309.8C1313.3 309.7 1355.7 311.3 1398 312.5C1440.3 313.7 1482.7 314.3 1525 318.2C1567.3 322 1609.7 329 1652 332.5C1694.3 336 1736.7 336 1779 332.2C1821.3 328.3 1863.7 320.7 1906 317.2C1948.3 313.7 1990.7 314.3 2033 317.2C2075.3 320 2117.7 325 2138.8 327.5L2160 330L2160 369L2138.8 369C2117.7 369 2075.3 369 2033 369C1990.7 369 1948.3 369 1906 369C1863.7 369 1821.3 369 1779 369C1736.7 369 1694.3 369 1652 369C1609.7 369 1567.3 369 1525 369C1482.7 369 1440.3 369 1398 369C1355.7 369 1313.3 369 1271 369C1228.7 369 1186.3 369 1143.8 369C1101.3 369 1058.7 369 1016.2 369C973.7 369 931.3 369 889 369C846.7 369 804.3 369 762 369C719.7 369 677.3 369 635 369C592.7 369 550.3 369 508 369C465.7 369 423.3 369 381 369C338.7 369 296.3 369 254 369C211.7 369 169.3 369 127 369C84.7 369 42.3 369 21.2 369L0 369Z" fill="#d13367"></path><path class="waves"  d="M0 341L21.2 339.3C42.3 337.7 84.7 334.3 127 334.7C169.3 335 211.7 339 254 340.2C296.3 341.3 338.7 339.7 381 338.2C423.3 336.7 465.7 335.3 508 332.5C550.3 329.7 592.7 325.3 635 324.7C677.3 324 719.7 327 762 329.5C804.3 332 846.7 334 889 335.5C931.3 337 973.7 338 1016.2 338C1058.7 338 1101.3 337 1143.8 334.2C1186.3 331.3 1228.7 326.7 1271 327.8C1313.3 329 1355.7 336 1398 336C1440.3 336 1482.7 329 1525 329.5C1567.3 330 1609.7 338 1652 337.2C1694.3 336.3 1736.7 326.7 1779 325.8C1821.3 325 1863.7 333 1906 336.8C1948.3 340.7 1990.7 340.3 2033 337.8C2075.3 335.3 2117.7 330.7 2138.8 328.3L2160 326L2160 369L2138.8 369C2117.7 369 2075.3 369 2033 369C1990.7 369 1948.3 369 1906 369C1863.7 369 1821.3 369 1779 369C1736.7 369 1694.3 369 1652 369C1609.7 369 1567.3 369 1525 369C1482.7 369 1440.3 369 1398 369C1355.7 369 1313.3 369 1271 369C1228.7 369 1186.3 369 1143.8 369C1101.3 369 1058.7 369 1016.2 369C973.7 369 931.3 369 889 369C846.7 369 804.3 369 762 369C719.7 369 677.3 369 635 369C592.7 369 550.3 369 508 369C465.7 369 423.3 369 381 369C338.7 369 296.3 369 254 369C211.7 369 169.3 369 127 369C84.7 369 42.3 369 21.2 369L0 369Z" fill="#cc2b68"></path><path class="waves"  d="M0 348L21.2 347.5C42.3 347 84.7 346 127 344.5C169.3 343 211.7 341 254 341C296.3 341 338.7 343 381 343.3C423.3 343.7 465.7 342.3 508 340.8C550.3 339.3 592.7 337.7 635 339.5C677.3 341.3 719.7 346.7 762 347.5C804.3 348.3 846.7 344.7 889 344.7C931.3 344.7 973.7 348.3 1016.2 348C1058.7 347.7 1101.3 343.3 1143.8 343.2C1186.3 343 1228.7 347 1271 348.7C1313.3 350.3 1355.7 349.7 1398 348.8C1440.3 348 1482.7 347 1525 347.2C1567.3 347.3 1609.7 348.7 1652 348.8C1694.3 349 1736.7 348 1779 348.8C1821.3 349.7 1863.7 352.3 1906 350.5C1948.3 348.7 1990.7 342.3 2033 339C2075.3 335.7 2117.7 335.3 2138.8 335.2L2160 335L2160 369L2138.8 369C2117.7 369 2075.3 369 2033 369C1990.7 369 1948.3 369 1906 369C1863.7 369 1821.3 369 1779 369C1736.7 369 1694.3 369 1652 369C1609.7 369 1567.3 369 1525 369C1482.7 369 1440.3 369 1398 369C1355.7 369 1313.3 369 1271 369C1228.7 369 1186.3 369 1143.8 369C1101.3 369 1058.7 369 1016.2 369C973.7 369 931.3 369 889 369C846.7 369 804.3 369 762 369C719.7 369 677.3 369 635 369C592.7 369 550.3 369 508 369C465.7 369 423.3 369 381 369C338.7 369 296.3 369 254 369C211.7 369 169.3 369 127 369C84.7 369 42.3 369 21.2 369L0 369Z" fill="#c62368"></path></svg>